PathFileType	4	(X/Y/Z)	T1_P1_Vision_NoMovement_4_0-684.trc
DataRate	CameraRate	NumFrames	NumMarkers	Units	OrigDataRate	OrigDataStartFrame	OrigNumFrames
60	60	4	27	m	60	598	684
Frame#	Time	RHip			RKnee			RAnkle			RBigToe			RSmallToe			RHeel			LHip			LKnee			LAnkle			LBigToe			LSmallToe			LHeel			Neck			Head			Nose			RShoulder			RElbow			RWrist			RThumb			RIndex			RPinky			LShoulder			LElbow			LWrist			LThumb			LIndex			LPinky		
		X1	Y1	Z1	X2	Y2	Z2	X3	Y3	Z3	X4	Y4	Z4	X5	Y5	Z5	X6	Y6	Z6	X7	Y7	Z7	X8	Y8	Z8	X9	Y9	Z9	X10	Y10	Z10	X11	Y11	Z11	X12	Y12	Z12	X13	Y13	Z13	X14	Y14	Z14	X15	Y15	Z15	X16	Y16	Z16	X17	Y17	Z17	X18	Y18	Z18	X19	Y19	Z19	X20	Y20	Z20	X21	Y21	Z21	X22	Y22	Z22	X23	Y23	Z23	X24	Y24	Z24	X25	Y25	Z25	X26	Y26	Z26	X27	Y27	Z27
599	9.983333333333333	-64.73795261386235	3743.196395321198	-525.252698645217	287.1827091256722	3867.37796118001	-491.3552738567273	639.3664946462736	4156.344586006127	-525.6795679546494	697.9611171096715	4014.2278788183758	-447.70338058340656	689.1049114018967	3966.3164402332695	-489.5239174118477	679.0204321047563	4201.038506177006	-533.3705831627833	-96.30984958813967	3857.967128579203	-344.1097101383953	251.09086065785348	3959.8586391327867	-353.20611501493244	627.238289976351	4258.496139011121	-459.22829226386085	668.2796520665529	3995.723514235622	-350.22771906030636	676.1107424107626	4122.6971482859035	-345.2802602606949	674.7969057888595	4324.373294036719	-500.2064990721693	-651.50389817108	3652.802364911291	-489.32478845754395	-895.4043835906	3494.4140087795604	-426.5166798711853	-754.2856141321973	3527.3734887727437	-392.722312723752	-539.7631642436562	3630.313125695282	-644.033155169081	-243.9997602342848	3635.3236777246493	-660.6033604208176	-2.7032801986346566	3642.278800702017	-581.8984478455378	89.21593198852308	3730.5473373607592	-531.2827202434223	130.92138047859697	3732.4437352447703	-545.6490106687293	114.95577553865874	3697.0360320061077	-565.406443036531	-605.8348396074128	3737.770548927218	-349.51370110624043	-367.6345962055222	3900.28116621165	-330.9371715015801	-107.31117796659967	3837.4014140774075	-232.65206868284162	25.309198297269596	3881.21015058486	-283.11817376944686	34.510622743654366	3803.435250953069	-202.14421384047722	14.732265543494226	3932.1241264009204	-210.7290803457331
600	10.0	-64.2952295636786	3743.63269060555	-524.8333226444678	289.8536848259667	3866.721272417589	-492.80652269345705	639.3826016354416	4156.539499673462	-525.7278363324028	697.147936607975	4013.795632024161	-448.3731976550905	689.6776806595157	3966.282516055299	-492.8223738880258	677.9695663040496	4197.336314197795	-532.7807362572411	-96.20993627399493	3857.840634829734	-344.06661008706976	251.1830074126692	3953.344413920601	-351.93950875516987	626.9664166296462	4256.430259116845	-457.73336399576647	667.6951883326374	3993.907998824311	-352.6057437253945	677.6354404383898	4123.8366230316315	-346.0970401774342	674.0023350975447	4323.2405315602155	-499.5417681924238	-649.761805041013	3653.348315961532	-489.72572080976624	-895.3921128305947	3494.352958527063	-426.4740677826172	-752.6374512333412	3528.04977486732	-392.8754792386437	-540.5690099973779	3630.0883051233272	-643.9915399999306	-244.35036130820416	3635.280187979775	-660.7206200280207	-2.7202625208142175	3642.3283523749596	-581.9115886491732	89.167386242409	3730.506498204287	-531.2156596843507	132.36387673388484	3733.4873634712976	-545.6618873992719	116.32339015672144	3695.4255291805	-563.7181322347591	-604.9537780684032	3737.7652633893395	-348.0233140205987	-367.6123988782214	3900.088283893491	-330.88447418615516	-107.29500297492672	3837.464344994094	-232.6235157191579	24.891349699719502	3880.5264220233394	-282.1439856188905	35.59266962244909	3803.5407312686934	-201.38371578597133	14.674182472079067	3936.144783202458	-211.38904308253808
601	10.016666666666667	-64.74833732171979	3743.182462685788	-524.5215225795216	292.89972979020627	3873.0583620623893	-498.1867272814666	639.3553581269383	4155.912641845452	-526.271613084388	697.8236127850571	4015.347452152777	-450.8723255214114	691.1083074518643	3966.757339508238	-495.09623632704233	676.6152993895014	4195.95763554821	-532.7272488093157	-96.12684569006103	3857.7185146434667	-344.03419848311654	250.6484079376616	3945.429433149115	-350.5390463805765	626.7966675021086	4255.624945251147	-457.19843877941696	668.4037383580019	3992.6853106307385	-355.2114031221299	679.5489658348224	4127.234617230795	-346.8341009259639	673.0169218153696	4320.274626662999	-497.6253470040207	-649.0175888960879	3653.5301947757607	-489.8762399355133	-895.3739930813002	3494.250984635596	-426.40427624135566	-750.1104373988497	3524.8703851919663	-389.9992588487181	-541.3603679142524	3629.9434555075973	-644.0237067862898	-245.3397533821392	3634.938396013943	-660.7998452533718	-2.750604462923317	3642.542207854467	-581.9796965429558	89.20714782211849	3730.5399636560624	-531.2096393715033	134.07998019743405	3734.5412890873804	-545.6318075825907	117.94371500660421	3696.5053252691396	-563.5743639834579	-604.494155334451	3737.66670270318	-346.55818347710095	-367.63051284546094	3900.0533601629445	-330.86095081723647	-107.30180296951791	3837.370732928963	-232.54852496599247	24.086151477235262	3879.4310322538518	-280.67906694411545	35.210617936488546	3802.696959625003	-199.7326265360345	14.566606785589013	3944.338165774112	-212.7212598238982
602	10.033333333333331	-65.60863674672594	3742.693557967421	-524.5357898292667	294.3370135097226	3881.401242398454	-504.6462975617238	639.1071663014584	4153.013862857327	-527.3067740667406	700.8073199997344	4021.292283717137	-455.65018392257747	692.4306580430041	3964.9948904533044	-494.9416338071445	675.1306726407732	4192.906096564662	-532.2223239480799	-96.10139931699729	3857.7171864522097	-344.0513670650224	250.38353720695412	3941.513481278881	-349.914168167727	626.217128520889	4255.0355056534145	-456.9452770255011	670.5999294408963	3993.154131266423	-356.58183032588505	680.796511759118	4132.380782821654	-347.1286342988452	671.4560862757124	4316.024833109205	-494.72164804095723	-649.7641394515917	3653.1958642558066	-489.7125387914226	-895.360806795911	3494.1752986306196	-426.35768481770344	-748.9635576347574	3520.8409528592397	-386.7802264674741	-541.6885326908905	3629.494142618679	-643.7170503719811	-246.24400772943372	3634.560659434235	-660.7869171585944	-2.768665112422991	3642.735667461186	-582.0468332559043	89.32916118341734	3731.1022363283205	-531.6372694716121	134.84752394002385	3735.0829773732376	-545.6761586494804	118.79036831778731	3698.7479231678367	-564.8551889130792	-604.8243466730387	3737.4293414281374	-345.9491576336805	-367.6658874784184	3900.1117831439883	-330.8537901300359	-107.31847496525458	3837.057759696292	-232.4497531234913	23.548891286827487	3878.9348274465347	-280.0347712651943	33.68839000069155	3802.561700114651	-198.75269658273356	14.589419662801243	3949.1577911096365	-213.50724371468633
